<svg width="18" height="18" viewBox="0 0 18 18" fill="none" xmlns="http://www.w3.org/2000/svg">
<rect width="18" height="18" fill="#F2F2F2"/>
<g id="Desktop - Index - Light" clip-path="url(#clip0_0_1)">
<rect width="1440" height="1024" transform="translate(-112 -147)" fill="white"/>
<rect id="Rectangle" x="-112" y="-147" width="1440" height="1024" fill="#FAFAFA"/>
<g id="SEARCH Copy">
<g id="Rectangle_2" filter="url(#filter0_d_0_1)">
<rect x="-32" y="-19" width="480" height="56" rx="5" fill="white"/>
</g>
<g id="search">
<path id="Shape" fill-rule="evenodd" clip-rule="evenodd" d="M12.5 11H11.7L11.4 10.7C12.4 9.6 13 8.1 13 6.5C13 2.9 10.1 0 6.5 0C2.9 0 0 2.9 0 6.5C0 10.1 2.9 13 6.5 13C8.1 13 9.6 12.4 10.7 11.4L11 11.7V12.5L16 17.5L17.5 16L12.5 11ZM6.5 11C4 11 2 9 2 6.5C2 4 4 2 6.5 2C9 2 11 4 11 6.5C11 9 9 11 6.5 11Z" fill="#848484"/>
</g>
</g>
</g>
<defs>
<filter id="filter0_d_0_1" x="-41" y="-26" width="498" height="74" filterUnits="userSpaceOnUse" color-interpolation-filters="sRGB">
<feFlood flood-opacity="0" result="BackgroundImageFix"/>
<feColorMatrix in="SourceAlpha" type="matrix" values="0 0 0 0 0 0 0 0 0 0 0 0 0 0 0 0 0 0 127 0" result="hardAlpha"/>
<feOffset dy="2"/>
<feGaussianBlur stdDeviation="4.5"/>
<feColorMatrix type="matrix" values="0 0 0 0 0 0 0 0 0 0 0 0 0 0 0 0 0 0 0.0532439 0"/>
<feBlend mode="normal" in2="BackgroundImageFix" result="effect1_dropShadow_0_1"/>
<feBlend mode="normal" in="SourceGraphic" in2="effect1_dropShadow_0_1" result="shape"/>
</filter>
<clipPath id="clip0_0_1">
<rect width="1440" height="1024" fill="white" transform="translate(-112 -147)"/>
</clipPath>
</defs>
</svg>
